<mxfile host="Electron" agent="Mozilla/5.0 (Windows NT 10.0; Win64; x64) AppleWebKit/537.36 (KHTML, like Gecko) draw.io/28.1.2 Chrome/138.0.7204.243 Electron/37.4.0 Safari/537.36" version="28.1.2">
  <diagram name="Страница — 1" id="8eSx1k_ZYEwDAiT9d2uQ">
    <mxGraphModel dx="1763" dy="1290" grid="1" gridSize="10" guides="1" tooltips="1" connect="1" arrows="1" fold="1" page="1" pageScale="1" pageWidth="827" pageHeight="1169" math="0" shadow="0">
      <root>
        <mxCell id="0" />
        <mxCell id="1" parent="0" />
        <mxCell id="wPgBuyR4cdrzYGQTB9yw-1" value="Начало" style="rounded=1;whiteSpace=wrap;html=1;" parent="1" vertex="1">
          <mxGeometry x="40" y="160" width="120" height="40" as="geometry" />
        </mxCell>
        <mxCell id="wPgBuyR4cdrzYGQTB9yw-2" value="Ввод текста" style="shape=parallelogram;perimeter=parallelogramPerimeter;whiteSpace=wrap;html=1;fixedSize=1;" parent="1" vertex="1">
          <mxGeometry x="40" y="220" width="120" height="80" as="geometry" />
        </mxCell>
        <mxCell id="wPgBuyR4cdrzYGQTB9yw-3" value="&lt;div&gt;&lt;pre style=&quot;font-family: &amp;quot;JetBrains Mono&amp;quot;, monospace;&quot;&gt;&lt;span&gt;&lt;font style=&quot;color: rgb(0, 0, 0);&quot;&gt;word=&lt;span style=&quot;color: rgb(106, 171, 115);&quot;&gt;&#39;&#39;&lt;br&gt;&lt;/span&gt;reverse_word=&lt;span style=&quot;color: rgb(106, 171, 115);&quot;&gt;&#39;&#39;&lt;br&gt;&lt;/span&gt;letter=&lt;span style=&quot;color: rgb(106, 171, 115);&quot;&gt;&#39;&#39;&lt;/span&gt;&lt;/font&gt;&lt;/span&gt;&lt;/pre&gt;&lt;/div&gt;" style="rounded=0;whiteSpace=wrap;html=1;" parent="1" vertex="1">
          <mxGeometry x="40" y="320" width="120" height="80" as="geometry" />
        </mxCell>
        <mxCell id="wPgBuyR4cdrzYGQTB9yw-4" value="Перебор символов в тексте" style="shape=hexagon;perimeter=hexagonPerimeter2;whiteSpace=wrap;html=1;fixedSize=1;" parent="1" vertex="1">
          <mxGeometry x="40" y="420" width="120" height="80" as="geometry" />
        </mxCell>
        <mxCell id="wPgBuyR4cdrzYGQTB9yw-6" value="Символ - это&lt;div&gt;&amp;nbsp;пробел&lt;/div&gt;" style="rhombus;whiteSpace=wrap;html=1;" parent="1" vertex="1">
          <mxGeometry x="40" y="520" width="120" height="80" as="geometry" />
        </mxCell>
        <mxCell id="wPgBuyR4cdrzYGQTB9yw-7" value="Добавляем символ в слово" style="rounded=0;whiteSpace=wrap;html=1;" parent="1" vertex="1">
          <mxGeometry x="-110" y="600" width="120" height="80" as="geometry" />
        </mxCell>
        <mxCell id="wPgBuyR4cdrzYGQTB9yw-8" value="Слово не пустое" style="rhombus;whiteSpace=wrap;html=1;" parent="1" vertex="1">
          <mxGeometry x="200" y="600" width="120" height="80" as="geometry" />
        </mxCell>
        <mxCell id="wPgBuyR4cdrzYGQTB9yw-9" value="&lt;div&gt;&lt;pre style=&quot;font-family: &amp;quot;JetBrains Mono&amp;quot;, monospace;&quot;&gt;создаем пустую &lt;/pre&gt;&lt;pre style=&quot;font-family: &amp;quot;JetBrains Mono&amp;quot;, monospace;&quot;&gt;строку&lt;/pre&gt;&lt;/div&gt;" style="rounded=0;whiteSpace=wrap;html=1;" parent="1" vertex="1">
          <mxGeometry x="320" y="690" width="120" height="80" as="geometry" />
        </mxCell>
        <mxCell id="wPgBuyR4cdrzYGQTB9yw-10" value="&lt;div&gt;&lt;pre style=&quot;font-family: &amp;quot;JetBrains Mono&amp;quot;, monospace;&quot;&gt;&lt;span&gt;&lt;font style=&quot;color: rgb(0, 0, 0);&quot;&gt;reverse_word &lt;/font&gt;&lt;/span&gt;&lt;/pre&gt;&lt;pre style=&quot;font-family: &amp;quot;JetBrains Mono&amp;quot;, monospace;&quot;&gt;&lt;span&gt;&lt;font style=&quot;color: rgb(0, 0, 0);&quot;&gt;пустое&lt;/font&gt;&lt;/span&gt;&lt;/pre&gt;&lt;/div&gt;" style="rhombus;whiteSpace=wrap;html=1;" parent="1" vertex="1">
          <mxGeometry x="80" y="690" width="120" height="80" as="geometry" />
        </mxCell>
        <mxCell id="wPgBuyR4cdrzYGQTB9yw-11" value="" style="endArrow=none;html=1;rounded=0;exitX=0.5;exitY=0;exitDx=0;exitDy=0;entryX=0.5;entryY=1;entryDx=0;entryDy=0;" parent="1" source="wPgBuyR4cdrzYGQTB9yw-2" target="wPgBuyR4cdrzYGQTB9yw-1" edge="1">
          <mxGeometry width="50" height="50" relative="1" as="geometry">
            <mxPoint x="70" y="210" as="sourcePoint" />
            <mxPoint x="120" y="160" as="targetPoint" />
          </mxGeometry>
        </mxCell>
        <mxCell id="wPgBuyR4cdrzYGQTB9yw-12" value="" style="endArrow=none;html=1;rounded=0;exitX=0.5;exitY=1;exitDx=0;exitDy=0;entryX=0.5;entryY=1;entryDx=0;entryDy=0;" parent="1" source="wPgBuyR4cdrzYGQTB9yw-2" target="wPgBuyR4cdrzYGQTB9yw-2" edge="1">
          <mxGeometry width="50" height="50" relative="1" as="geometry">
            <mxPoint x="100" y="250" as="sourcePoint" />
            <mxPoint x="100" y="230" as="targetPoint" />
            <Array as="points">
              <mxPoint x="100" y="320" />
            </Array>
          </mxGeometry>
        </mxCell>
        <mxCell id="wPgBuyR4cdrzYGQTB9yw-13" value="" style="endArrow=none;html=1;rounded=0;exitX=0.5;exitY=0;exitDx=0;exitDy=0;entryX=0.5;entryY=1;entryDx=0;entryDy=0;" parent="1" source="wPgBuyR4cdrzYGQTB9yw-4" target="wPgBuyR4cdrzYGQTB9yw-3" edge="1">
          <mxGeometry width="50" height="50" relative="1" as="geometry">
            <mxPoint x="130" y="430" as="sourcePoint" />
            <mxPoint x="130" y="410" as="targetPoint" />
            <Array as="points">
              <mxPoint x="100" y="410" />
            </Array>
          </mxGeometry>
        </mxCell>
        <mxCell id="wPgBuyR4cdrzYGQTB9yw-14" value="" style="endArrow=none;html=1;rounded=0;exitX=0.5;exitY=0;exitDx=0;exitDy=0;entryX=0.5;entryY=1;entryDx=0;entryDy=0;" parent="1" source="wPgBuyR4cdrzYGQTB9yw-6" target="wPgBuyR4cdrzYGQTB9yw-4" edge="1">
          <mxGeometry width="50" height="50" relative="1" as="geometry">
            <mxPoint x="150" y="610" as="sourcePoint" />
            <mxPoint x="150" y="590" as="targetPoint" />
          </mxGeometry>
        </mxCell>
        <mxCell id="wPgBuyR4cdrzYGQTB9yw-15" value="" style="endArrow=none;html=1;rounded=0;exitX=0.5;exitY=0;exitDx=0;exitDy=0;" parent="1" source="wPgBuyR4cdrzYGQTB9yw-7" edge="1">
          <mxGeometry width="50" height="50" relative="1" as="geometry">
            <mxPoint x="-20" y="550" as="sourcePoint" />
            <mxPoint x="-50" y="560" as="targetPoint" />
          </mxGeometry>
        </mxCell>
        <mxCell id="wPgBuyR4cdrzYGQTB9yw-16" value="" style="endArrow=none;html=1;rounded=0;exitX=0;exitY=0.5;exitDx=0;exitDy=0;" parent="1" source="wPgBuyR4cdrzYGQTB9yw-6" edge="1">
          <mxGeometry width="50" height="50" relative="1" as="geometry">
            <mxPoint x="20" y="540" as="sourcePoint" />
            <mxPoint x="-50" y="560" as="targetPoint" />
          </mxGeometry>
        </mxCell>
        <mxCell id="wPgBuyR4cdrzYGQTB9yw-17" value="" style="endArrow=none;html=1;rounded=0;exitX=1;exitY=0.5;exitDx=0;exitDy=0;" parent="1" source="wPgBuyR4cdrzYGQTB9yw-6" edge="1">
          <mxGeometry width="50" height="50" relative="1" as="geometry">
            <mxPoint x="220" y="560" as="sourcePoint" />
            <mxPoint x="260" y="560" as="targetPoint" />
          </mxGeometry>
        </mxCell>
        <mxCell id="wPgBuyR4cdrzYGQTB9yw-18" value="" style="endArrow=none;html=1;rounded=0;exitX=0.5;exitY=0;exitDx=0;exitDy=0;" parent="1" source="wPgBuyR4cdrzYGQTB9yw-8" edge="1">
          <mxGeometry width="50" height="50" relative="1" as="geometry">
            <mxPoint x="280" y="560" as="sourcePoint" />
            <mxPoint x="260" y="560" as="targetPoint" />
          </mxGeometry>
        </mxCell>
        <mxCell id="wPgBuyR4cdrzYGQTB9yw-19" value="" style="endArrow=none;html=1;rounded=0;exitX=0.5;exitY=0;exitDx=0;exitDy=0;" parent="1" source="wPgBuyR4cdrzYGQTB9yw-9" edge="1">
          <mxGeometry width="50" height="50" relative="1" as="geometry">
            <mxPoint x="290" y="700" as="sourcePoint" />
            <mxPoint x="380" y="640" as="targetPoint" />
          </mxGeometry>
        </mxCell>
        <mxCell id="wPgBuyR4cdrzYGQTB9yw-20" value="" style="endArrow=none;html=1;rounded=0;entryX=1;entryY=0.5;entryDx=0;entryDy=0;" parent="1" target="wPgBuyR4cdrzYGQTB9yw-8" edge="1">
          <mxGeometry width="50" height="50" relative="1" as="geometry">
            <mxPoint x="380" y="640" as="sourcePoint" />
            <mxPoint x="390" y="620" as="targetPoint" />
          </mxGeometry>
        </mxCell>
        <mxCell id="wPgBuyR4cdrzYGQTB9yw-21" value="" style="endArrow=none;html=1;rounded=0;exitX=0.5;exitY=0;exitDx=0;exitDy=0;" parent="1" source="wPgBuyR4cdrzYGQTB9yw-10" edge="1">
          <mxGeometry width="50" height="50" relative="1" as="geometry">
            <mxPoint x="230" y="650" as="sourcePoint" />
            <mxPoint x="140" y="640" as="targetPoint" />
          </mxGeometry>
        </mxCell>
        <mxCell id="wPgBuyR4cdrzYGQTB9yw-22" value="" style="endArrow=none;html=1;rounded=0;entryX=0;entryY=0.5;entryDx=0;entryDy=0;" parent="1" target="wPgBuyR4cdrzYGQTB9yw-8" edge="1">
          <mxGeometry width="50" height="50" relative="1" as="geometry">
            <mxPoint x="140" y="640" as="sourcePoint" />
            <mxPoint x="170" y="620" as="targetPoint" />
          </mxGeometry>
        </mxCell>
        <mxCell id="wPgBuyR4cdrzYGQTB9yw-23" value="" style="endArrow=none;html=1;rounded=0;" parent="1" edge="1">
          <mxGeometry width="50" height="50" relative="1" as="geometry">
            <mxPoint x="40" y="760" as="sourcePoint" />
            <mxPoint x="40" y="730" as="targetPoint" />
            <Array as="points">
              <mxPoint x="40" y="780" />
              <mxPoint x="40" y="760" />
            </Array>
          </mxGeometry>
        </mxCell>
        <mxCell id="wPgBuyR4cdrzYGQTB9yw-24" value="" style="endArrow=none;html=1;rounded=0;entryX=0.5;entryY=1;entryDx=0;entryDy=0;" parent="1" target="wPgBuyR4cdrzYGQTB9yw-9" edge="1">
          <mxGeometry width="50" height="50" relative="1" as="geometry">
            <mxPoint x="380" y="900" as="sourcePoint" />
            <mxPoint x="290" y="830" as="targetPoint" />
          </mxGeometry>
        </mxCell>
        <mxCell id="wPgBuyR4cdrzYGQTB9yw-25" value="" style="endArrow=none;html=1;rounded=0;" parent="1" edge="1">
          <mxGeometry width="50" height="50" relative="1" as="geometry">
            <mxPoint x="240" y="730" as="sourcePoint" />
            <mxPoint x="200" y="729.5" as="targetPoint" />
          </mxGeometry>
        </mxCell>
        <mxCell id="wPgBuyR4cdrzYGQTB9yw-26" value="" style="endArrow=none;html=1;rounded=0;exitX=0;exitY=0.5;exitDx=0;exitDy=0;" parent="1" source="wPgBuyR4cdrzYGQTB9yw-10" edge="1">
          <mxGeometry width="50" height="50" relative="1" as="geometry">
            <mxPoint x="260" y="810" as="sourcePoint" />
            <mxPoint x="70" y="730" as="targetPoint" />
            <Array as="points">
              <mxPoint x="40" y="730" />
            </Array>
          </mxGeometry>
        </mxCell>
        <mxCell id="wPgBuyR4cdrzYGQTB9yw-27" value="" style="endArrow=none;html=1;rounded=0;entryX=0.5;entryY=1;entryDx=0;entryDy=0;" parent="1" target="wPgBuyR4cdrzYGQTB9yw-7" edge="1">
          <mxGeometry width="50" height="50" relative="1" as="geometry">
            <mxPoint x="-50" y="920" as="sourcePoint" />
            <mxPoint x="-40" y="680" as="targetPoint" />
          </mxGeometry>
        </mxCell>
        <mxCell id="wPgBuyR4cdrzYGQTB9yw-28" value="" style="endArrow=none;html=1;rounded=0;" parent="1" edge="1">
          <mxGeometry width="50" height="50" relative="1" as="geometry">
            <mxPoint x="1140" y="610" as="sourcePoint" />
            <mxPoint x="1400" y="610" as="targetPoint" />
          </mxGeometry>
        </mxCell>
        <mxCell id="wPgBuyR4cdrzYGQTB9yw-29" value="" style="endArrow=none;html=1;rounded=0;" parent="1" edge="1">
          <mxGeometry width="50" height="50" relative="1" as="geometry">
            <mxPoint x="110" y="960" as="sourcePoint" />
            <mxPoint x="110" y="920" as="targetPoint" />
            <Array as="points" />
          </mxGeometry>
        </mxCell>
        <mxCell id="wPgBuyR4cdrzYGQTB9yw-30" value="" style="endArrow=none;html=1;rounded=0;" parent="1" edge="1">
          <mxGeometry width="50" height="50" relative="1" as="geometry">
            <mxPoint x="240" y="790" as="sourcePoint" />
            <mxPoint x="240" y="730" as="targetPoint" />
            <Array as="points">
              <mxPoint x="240" y="780" />
            </Array>
          </mxGeometry>
        </mxCell>
        <mxCell id="wPgBuyR4cdrzYGQTB9yw-31" value="&lt;div style=&quot;line-height: 80%;&quot;&gt;&lt;pre style=&quot;font-family: &amp;quot;JetBrains Mono&amp;quot;, monospace;&quot;&gt;&lt;span&gt;&lt;font style=&quot;color: rgb(0, 0, 0);&quot;&gt;reverse_word = &lt;/font&gt;&lt;/span&gt;&lt;/pre&gt;&lt;pre style=&quot;font-family: &amp;quot;JetBrains Mono&amp;quot;, monospace;&quot;&gt;&lt;span&gt;&lt;font style=&quot;color: rgb(0, 0, 0);&quot;&gt;word&lt;/font&gt;&lt;/span&gt;&lt;/pre&gt;&lt;/div&gt;" style="rounded=0;whiteSpace=wrap;html=1;" parent="1" vertex="1">
          <mxGeometry x="-10" y="780" width="120" height="80" as="geometry" />
        </mxCell>
        <mxCell id="wPgBuyR4cdrzYGQTB9yw-32" value="&lt;div style=&quot;line-height: 80%;&quot;&gt;&lt;pre style=&quot;font-family: &amp;quot;JetBrains Mono&amp;quot;, monospace;&quot;&gt;&lt;span&gt;&lt;font style=&quot;color: rgb(0, 0, 0);&quot;&gt;reverse_word=&lt;/font&gt;&lt;/span&gt;&lt;/pre&gt;&lt;pre style=&quot;font-family: &amp;quot;JetBrains Mono&amp;quot;, monospace;&quot;&gt;&lt;span&gt;&lt;font&gt;word + &lt;span&gt;&lt;font style=&quot;color: rgb(0, 0, 0);&quot;&gt;пробел &lt;/font&gt;&lt;/span&gt;+&lt;/font&gt;&lt;/span&gt;&lt;/pre&gt;&lt;pre style=&quot;font-family: &amp;quot;JetBrains Mono&amp;quot;, monospace;&quot;&gt;&lt;span&gt;&lt;font style=&quot;color: rgb(0, 0, 0);&quot;&gt; reverse_word&lt;/font&gt;&lt;/span&gt;&lt;/pre&gt;&lt;/div&gt;" style="rounded=0;whiteSpace=wrap;html=1;" parent="1" vertex="1">
          <mxGeometry x="180" y="780" width="120" height="80" as="geometry" />
        </mxCell>
        <mxCell id="wPgBuyR4cdrzYGQTB9yw-34" value="" style="endArrow=none;html=1;rounded=0;entryX=0.417;entryY=1.026;entryDx=0;entryDy=0;entryPerimeter=0;" parent="1" target="wPgBuyR4cdrzYGQTB9yw-31" edge="1">
          <mxGeometry width="50" height="50" relative="1" as="geometry">
            <mxPoint x="40" y="880" as="sourcePoint" />
            <mxPoint x="30" y="860" as="targetPoint" />
            <Array as="points" />
          </mxGeometry>
        </mxCell>
        <mxCell id="wPgBuyR4cdrzYGQTB9yw-35" value="" style="endArrow=none;html=1;rounded=0;" parent="1" edge="1">
          <mxGeometry width="50" height="50" relative="1" as="geometry">
            <mxPoint x="240" y="880" as="sourcePoint" />
            <mxPoint x="240" y="880" as="targetPoint" />
            <Array as="points">
              <mxPoint x="240" y="860" />
              <mxPoint x="240" y="870" />
            </Array>
          </mxGeometry>
        </mxCell>
        <mxCell id="wPgBuyR4cdrzYGQTB9yw-36" value="" style="endArrow=none;html=1;rounded=0;" parent="1" edge="1">
          <mxGeometry width="50" height="50" relative="1" as="geometry">
            <mxPoint x="40" y="880" as="sourcePoint" />
            <mxPoint x="240" y="880" as="targetPoint" />
          </mxGeometry>
        </mxCell>
        <mxCell id="wPgBuyR4cdrzYGQTB9yw-37" value="" style="endArrow=none;html=1;rounded=0;" parent="1" edge="1">
          <mxGeometry width="50" height="50" relative="1" as="geometry">
            <mxPoint x="140" y="880" as="sourcePoint" />
            <mxPoint x="140" y="880" as="targetPoint" />
            <Array as="points">
              <mxPoint x="140" y="900" />
            </Array>
          </mxGeometry>
        </mxCell>
        <mxCell id="wPgBuyR4cdrzYGQTB9yw-38" value="" style="endArrow=none;html=1;rounded=0;" parent="1" edge="1">
          <mxGeometry width="50" height="50" relative="1" as="geometry">
            <mxPoint x="140" y="900" as="sourcePoint" />
            <mxPoint x="380" y="900" as="targetPoint" />
          </mxGeometry>
        </mxCell>
        <mxCell id="wPgBuyR4cdrzYGQTB9yw-39" value="" style="endArrow=none;html=1;rounded=0;" parent="1" edge="1">
          <mxGeometry width="50" height="50" relative="1" as="geometry">
            <mxPoint x="270" y="920" as="sourcePoint" />
            <mxPoint x="270" y="900" as="targetPoint" />
            <Array as="points">
              <mxPoint x="270" y="920" />
            </Array>
          </mxGeometry>
        </mxCell>
        <mxCell id="wPgBuyR4cdrzYGQTB9yw-40" value="" style="endArrow=none;html=1;rounded=0;" parent="1" edge="1">
          <mxGeometry width="50" height="50" relative="1" as="geometry">
            <mxPoint x="-50" y="920" as="sourcePoint" />
            <mxPoint x="270" y="920" as="targetPoint" />
          </mxGeometry>
        </mxCell>
        <mxCell id="wPgBuyR4cdrzYGQTB9yw-41" value="Вывод обратного порядка слов" style="shape=parallelogram;perimeter=parallelogramPerimeter;whiteSpace=wrap;html=1;fixedSize=1;" parent="1" vertex="1">
          <mxGeometry x="50" y="1000" width="120" height="80" as="geometry" />
        </mxCell>
        <mxCell id="wPgBuyR4cdrzYGQTB9yw-42" value="Перебор символов в тексте" style="shape=hexagon;perimeter=hexagonPerimeter2;whiteSpace=wrap;html=1;fixedSize=1;" parent="1" vertex="1">
          <mxGeometry x="960" y="240" width="120" height="80" as="geometry" />
        </mxCell>
        <mxCell id="wPgBuyR4cdrzYGQTB9yw-43" value="Символ не пробел" style="rhombus;whiteSpace=wrap;html=1;" parent="1" vertex="1">
          <mxGeometry x="960" y="340" width="120" height="80" as="geometry" />
        </mxCell>
        <mxCell id="wPgBuyR4cdrzYGQTB9yw-44" value="букв в строке нет" style="rhombus;whiteSpace=wrap;html=1;" parent="1" vertex="1">
          <mxGeometry x="680" y="430" width="120" height="80" as="geometry" />
        </mxCell>
        <mxCell id="wPgBuyR4cdrzYGQTB9yw-45" value="&lt;div&gt;&lt;pre style=&quot;font-family: &amp;quot;JetBrains Mono&amp;quot;, monospace;&quot;&gt;&lt;font style=&quot;color: rgb(0, 0, 0);&quot;&gt;letter=character&lt;/font&gt;&lt;/pre&gt;&lt;/div&gt;" style="rounded=0;whiteSpace=wrap;html=1;" parent="1" vertex="1">
          <mxGeometry x="550" y="514.17" width="120" height="80" as="geometry" />
        </mxCell>
        <mxCell id="wPgBuyR4cdrzYGQTB9yw-46" value="&lt;div&gt;&lt;pre style=&quot;font-family: &amp;quot;JetBrains Mono&amp;quot;, monospace;&quot;&gt;&lt;span&gt;&lt;font style=&quot;color: rgb(0, 0, 0);&quot;&gt;letter=character &lt;/font&gt;&lt;/span&gt;&lt;/pre&gt;&lt;pre style=&quot;font-family: &amp;quot;JetBrains Mono&amp;quot;, monospace;&quot;&gt;&lt;span&gt;&lt;font style=&quot;color: rgb(0, 0, 0);&quot;&gt;+ letter&lt;/font&gt;&lt;/span&gt;&lt;/pre&gt;&lt;/div&gt;" style="rounded=0;whiteSpace=wrap;html=1;" parent="1" vertex="1">
          <mxGeometry x="820" y="514.17" width="120" height="75.83" as="geometry" />
        </mxCell>
        <mxCell id="wPgBuyR4cdrzYGQTB9yw-47" value="букв в строке нет" style="rhombus;whiteSpace=wrap;html=1;" parent="1" vertex="1">
          <mxGeometry x="1200" y="430" width="120" height="80" as="geometry" />
        </mxCell>
        <mxCell id="wPgBuyR4cdrzYGQTB9yw-48" value="&lt;div&gt;&lt;pre style=&quot;font-family: &amp;quot;JetBrains Mono&amp;quot;, monospace;&quot;&gt;&lt;span style=&quot;background-color: light-dark(#ffffff, var(--ge-dark-color, #121212));&quot;&gt;&lt;font style=&quot;color: rgb(0, 0, 0);&quot;&gt;letter=character&lt;/font&gt;&lt;/span&gt;&lt;/pre&gt;&lt;/div&gt;" style="rounded=0;whiteSpace=wrap;html=1;" parent="1" vertex="1">
          <mxGeometry x="1080" y="510" width="120" height="80" as="geometry" />
        </mxCell>
        <mxCell id="wPgBuyR4cdrzYGQTB9yw-49" value="&lt;div&gt;&lt;pre style=&quot;font-family: &amp;quot;JetBrains Mono&amp;quot;, monospace;&quot;&gt;&lt;span&gt;&lt;font style=&quot;color: rgb(0, 0, 0);&quot;&gt;letter=character &lt;/font&gt;&lt;/span&gt;&lt;/pre&gt;&lt;pre style=&quot;font-family: &amp;quot;JetBrains Mono&amp;quot;, monospace;&quot;&gt;&lt;span&gt;&lt;font style=&quot;color: rgb(0, 0, 0);&quot;&gt;+пробел + letter&lt;/font&gt;&lt;/span&gt;&lt;/pre&gt;&lt;/div&gt;" style="rounded=0;whiteSpace=wrap;html=1;" parent="1" vertex="1">
          <mxGeometry x="1340" y="510" width="120" height="80" as="geometry" />
        </mxCell>
        <mxCell id="wPgBuyR4cdrzYGQTB9yw-50" value="" style="endArrow=none;html=1;rounded=0;entryX=0.5;entryY=1;entryDx=0;entryDy=0;" parent="1" source="wPgBuyR4cdrzYGQTB9yw-43" target="wPgBuyR4cdrzYGQTB9yw-42" edge="1">
          <mxGeometry width="50" height="50" relative="1" as="geometry">
            <mxPoint x="980" y="430" as="sourcePoint" />
            <mxPoint x="1030" y="380" as="targetPoint" />
          </mxGeometry>
        </mxCell>
        <mxCell id="wPgBuyR4cdrzYGQTB9yw-51" value="" style="endArrow=none;html=1;rounded=0;exitX=0.5;exitY=0;exitDx=0;exitDy=0;" parent="1" source="wPgBuyR4cdrzYGQTB9yw-46" edge="1">
          <mxGeometry width="50" height="50" relative="1" as="geometry">
            <mxPoint x="880" y="434.17" as="sourcePoint" />
            <mxPoint x="880" y="474.17" as="targetPoint" />
          </mxGeometry>
        </mxCell>
        <mxCell id="wPgBuyR4cdrzYGQTB9yw-52" value="" style="endArrow=none;html=1;rounded=0;exitX=0;exitY=0.5;exitDx=0;exitDy=0;" parent="1" source="wPgBuyR4cdrzYGQTB9yw-43" edge="1">
          <mxGeometry width="50" height="50" relative="1" as="geometry">
            <mxPoint x="910" y="410" as="sourcePoint" />
            <mxPoint x="740" y="380" as="targetPoint" />
          </mxGeometry>
        </mxCell>
        <mxCell id="wPgBuyR4cdrzYGQTB9yw-53" value="" style="endArrow=none;html=1;rounded=0;entryX=1;entryY=0.5;entryDx=0;entryDy=0;" parent="1" target="wPgBuyR4cdrzYGQTB9yw-43" edge="1">
          <mxGeometry width="50" height="50" relative="1" as="geometry">
            <mxPoint x="1260" y="380" as="sourcePoint" />
            <mxPoint x="1200" y="390" as="targetPoint" />
          </mxGeometry>
        </mxCell>
        <mxCell id="wPgBuyR4cdrzYGQTB9yw-54" value="" style="endArrow=none;html=1;rounded=0;exitX=0.5;exitY=0;exitDx=0;exitDy=0;" parent="1" source="wPgBuyR4cdrzYGQTB9yw-47" edge="1">
          <mxGeometry width="50" height="50" relative="1" as="geometry">
            <mxPoint x="1250" y="420" as="sourcePoint" />
            <mxPoint x="1260" y="380" as="targetPoint" />
          </mxGeometry>
        </mxCell>
        <mxCell id="wPgBuyR4cdrzYGQTB9yw-55" value="" style="endArrow=none;html=1;rounded=0;exitX=0.5;exitY=0;exitDx=0;exitDy=0;" parent="1" source="wPgBuyR4cdrzYGQTB9yw-44" edge="1">
          <mxGeometry width="50" height="50" relative="1" as="geometry">
            <mxPoint x="730" y="400" as="sourcePoint" />
            <mxPoint x="740" y="380" as="targetPoint" />
          </mxGeometry>
        </mxCell>
        <mxCell id="wPgBuyR4cdrzYGQTB9yw-56" value="" style="endArrow=none;html=1;rounded=0;entryX=1;entryY=0.5;entryDx=0;entryDy=0;" parent="1" edge="1">
          <mxGeometry width="50" height="50" relative="1" as="geometry">
            <mxPoint x="880" y="474.17" as="sourcePoint" />
            <mxPoint x="800" y="474.17" as="targetPoint" />
          </mxGeometry>
        </mxCell>
        <mxCell id="wPgBuyR4cdrzYGQTB9yw-57" value="" style="endArrow=none;html=1;rounded=0;" parent="1" edge="1">
          <mxGeometry width="50" height="50" relative="1" as="geometry">
            <mxPoint x="610" y="510" as="sourcePoint" />
            <mxPoint x="610" y="474.17" as="targetPoint" />
            <Array as="points">
              <mxPoint x="610" y="494.17" />
            </Array>
          </mxGeometry>
        </mxCell>
        <mxCell id="wPgBuyR4cdrzYGQTB9yw-58" value="" style="endArrow=none;html=1;rounded=0;entryX=0;entryY=0.5;entryDx=0;entryDy=0;" parent="1" edge="1">
          <mxGeometry width="50" height="50" relative="1" as="geometry">
            <mxPoint x="610" y="474.17" as="sourcePoint" />
            <mxPoint x="680" y="474.17" as="targetPoint" />
          </mxGeometry>
        </mxCell>
        <mxCell id="wPgBuyR4cdrzYGQTB9yw-59" value="" style="endArrow=none;html=1;rounded=0;exitX=0.5;exitY=0;exitDx=0;exitDy=0;" parent="1" source="wPgBuyR4cdrzYGQTB9yw-48" edge="1">
          <mxGeometry width="50" height="50" relative="1" as="geometry">
            <mxPoint x="1160" y="480" as="sourcePoint" />
            <mxPoint x="1140" y="470" as="targetPoint" />
          </mxGeometry>
        </mxCell>
        <mxCell id="wPgBuyR4cdrzYGQTB9yw-60" value="" style="endArrow=none;html=1;rounded=0;entryX=0;entryY=0.5;entryDx=0;entryDy=0;" parent="1" target="wPgBuyR4cdrzYGQTB9yw-47" edge="1">
          <mxGeometry width="50" height="50" relative="1" as="geometry">
            <mxPoint x="1140" y="470" as="sourcePoint" />
            <mxPoint x="1130" y="440" as="targetPoint" />
          </mxGeometry>
        </mxCell>
        <mxCell id="wPgBuyR4cdrzYGQTB9yw-61" value="" style="endArrow=none;html=1;rounded=0;exitX=1;exitY=0.5;exitDx=0;exitDy=0;" parent="1" source="wPgBuyR4cdrzYGQTB9yw-47" edge="1">
          <mxGeometry width="50" height="50" relative="1" as="geometry">
            <mxPoint x="1330" y="470" as="sourcePoint" />
            <mxPoint x="1400" y="470" as="targetPoint" />
          </mxGeometry>
        </mxCell>
        <mxCell id="wPgBuyR4cdrzYGQTB9yw-62" value="" style="endArrow=none;html=1;rounded=0;exitX=0.5;exitY=0;exitDx=0;exitDy=0;" parent="1" source="wPgBuyR4cdrzYGQTB9yw-49" edge="1">
          <mxGeometry width="50" height="50" relative="1" as="geometry">
            <mxPoint x="1510" y="460" as="sourcePoint" />
            <mxPoint x="1400" y="470" as="targetPoint" />
          </mxGeometry>
        </mxCell>
        <mxCell id="wPgBuyR4cdrzYGQTB9yw-63" value="" style="endArrow=none;html=1;rounded=0;" parent="1" edge="1">
          <mxGeometry width="50" height="50" relative="1" as="geometry">
            <mxPoint x="610" y="594.17" as="sourcePoint" />
            <mxPoint x="610" y="610" as="targetPoint" />
            <Array as="points">
              <mxPoint x="610" y="590" />
            </Array>
          </mxGeometry>
        </mxCell>
        <mxCell id="wPgBuyR4cdrzYGQTB9yw-64" value="" style="endArrow=none;html=1;rounded=0;" parent="1" edge="1">
          <mxGeometry width="50" height="50" relative="1" as="geometry">
            <mxPoint x="610" y="610" as="sourcePoint" />
            <mxPoint x="880" y="610" as="targetPoint" />
          </mxGeometry>
        </mxCell>
        <mxCell id="wPgBuyR4cdrzYGQTB9yw-65" value="" style="endArrow=none;html=1;rounded=0;entryX=0.5;entryY=1;entryDx=0;entryDy=0;" parent="1" target="wPgBuyR4cdrzYGQTB9yw-46" edge="1">
          <mxGeometry width="50" height="50" relative="1" as="geometry">
            <mxPoint x="880" y="610" as="sourcePoint" />
            <mxPoint x="870" y="604.17" as="targetPoint" />
          </mxGeometry>
        </mxCell>
        <mxCell id="wPgBuyR4cdrzYGQTB9yw-66" value="" style="endArrow=none;html=1;rounded=0;entryX=0.5;entryY=1;entryDx=0;entryDy=0;" parent="1" edge="1">
          <mxGeometry width="50" height="50" relative="1" as="geometry">
            <mxPoint x="1140" y="610" as="sourcePoint" />
            <mxPoint x="1140" y="590" as="targetPoint" />
          </mxGeometry>
        </mxCell>
        <mxCell id="wPgBuyR4cdrzYGQTB9yw-67" value="" style="endArrow=none;html=1;rounded=0;exitX=0.5;exitY=1;exitDx=0;exitDy=0;" parent="1" source="wPgBuyR4cdrzYGQTB9yw-49" edge="1">
          <mxGeometry width="50" height="50" relative="1" as="geometry">
            <mxPoint x="1400" y="600" as="sourcePoint" />
            <mxPoint x="1400" y="610" as="targetPoint" />
          </mxGeometry>
        </mxCell>
        <mxCell id="wPgBuyR4cdrzYGQTB9yw-68" value="" style="endArrow=none;html=1;rounded=0;" parent="1" edge="1">
          <mxGeometry width="50" height="50" relative="1" as="geometry">
            <mxPoint x="1290" y="639.29" as="sourcePoint" />
            <mxPoint x="740" y="639.29" as="targetPoint" />
          </mxGeometry>
        </mxCell>
        <mxCell id="wPgBuyR4cdrzYGQTB9yw-69" value="" style="endArrow=none;html=1;rounded=0;entryX=0.5;entryY=1;entryDx=0;entryDy=0;" parent="1" edge="1">
          <mxGeometry width="50" height="50" relative="1" as="geometry">
            <mxPoint x="110" y="960" as="sourcePoint" />
            <mxPoint x="90" y="960" as="targetPoint" />
            <Array as="points">
              <mxPoint x="-140" y="960" />
            </Array>
          </mxGeometry>
        </mxCell>
        <mxCell id="wPgBuyR4cdrzYGQTB9yw-70" value="" style="endArrow=none;html=1;rounded=0;" parent="1" edge="1">
          <mxGeometry width="50" height="50" relative="1" as="geometry">
            <mxPoint x="-140" y="960" as="sourcePoint" />
            <mxPoint x="-140" y="460" as="targetPoint" />
          </mxGeometry>
        </mxCell>
        <mxCell id="wPgBuyR4cdrzYGQTB9yw-71" value="" style="endArrow=none;html=1;rounded=0;" parent="1" edge="1">
          <mxGeometry width="50" height="50" relative="1" as="geometry">
            <mxPoint x="-140" y="460" as="sourcePoint" />
            <mxPoint x="30" y="460" as="targetPoint" />
          </mxGeometry>
        </mxCell>
        <mxCell id="wPgBuyR4cdrzYGQTB9yw-72" value="" style="endArrow=classic;html=1;rounded=0;entryX=0;entryY=0.5;entryDx=0;entryDy=0;" parent="1" target="wPgBuyR4cdrzYGQTB9yw-4" edge="1">
          <mxGeometry width="50" height="50" relative="1" as="geometry">
            <mxPoint x="-60" y="460" as="sourcePoint" />
            <mxPoint x="-10" y="450" as="targetPoint" />
          </mxGeometry>
        </mxCell>
        <mxCell id="wPgBuyR4cdrzYGQTB9yw-73" value="" style="endArrow=none;html=1;rounded=0;entryX=1;entryY=0.5;entryDx=0;entryDy=0;" parent="1" target="wPgBuyR4cdrzYGQTB9yw-4" edge="1">
          <mxGeometry width="50" height="50" relative="1" as="geometry">
            <mxPoint x="450" y="460" as="sourcePoint" />
            <mxPoint x="260" y="590" as="targetPoint" />
          </mxGeometry>
        </mxCell>
        <mxCell id="wPgBuyR4cdrzYGQTB9yw-74" value="" style="endArrow=none;html=1;rounded=0;" parent="1" edge="1">
          <mxGeometry width="50" height="50" relative="1" as="geometry">
            <mxPoint x="450" y="980" as="sourcePoint" />
            <mxPoint x="450" y="460" as="targetPoint" />
          </mxGeometry>
        </mxCell>
        <mxCell id="wPgBuyR4cdrzYGQTB9yw-75" value="" style="endArrow=none;html=1;rounded=0;" parent="1" edge="1">
          <mxGeometry width="50" height="50" relative="1" as="geometry">
            <mxPoint x="450" y="980" as="sourcePoint" />
            <mxPoint x="110" y="980" as="targetPoint" />
          </mxGeometry>
        </mxCell>
        <mxCell id="wPgBuyR4cdrzYGQTB9yw-76" value="" style="endArrow=none;html=1;rounded=0;" parent="1" edge="1">
          <mxGeometry width="50" height="50" relative="1" as="geometry">
            <mxPoint x="110" y="1000" as="sourcePoint" />
            <mxPoint x="110" y="980" as="targetPoint" />
            <Array as="points" />
          </mxGeometry>
        </mxCell>
        <mxCell id="wPgBuyR4cdrzYGQTB9yw-77" value="" style="endArrow=none;html=1;rounded=0;" parent="1" edge="1">
          <mxGeometry width="50" height="50" relative="1" as="geometry">
            <mxPoint x="740" y="640" as="sourcePoint" />
            <mxPoint x="740" y="610" as="targetPoint" />
            <Array as="points" />
          </mxGeometry>
        </mxCell>
        <mxCell id="wPgBuyR4cdrzYGQTB9yw-78" value="" style="endArrow=none;html=1;rounded=0;" parent="1" edge="1">
          <mxGeometry width="50" height="50" relative="1" as="geometry">
            <mxPoint x="1290" y="640" as="sourcePoint" />
            <mxPoint x="1290" y="610" as="targetPoint" />
            <Array as="points" />
          </mxGeometry>
        </mxCell>
        <mxCell id="wPgBuyR4cdrzYGQTB9yw-79" value="" style="endArrow=none;html=1;rounded=0;" parent="1" edge="1">
          <mxGeometry width="50" height="50" relative="1" as="geometry">
            <mxPoint x="1020" y="660" as="sourcePoint" />
            <mxPoint x="1020" y="640" as="targetPoint" />
            <Array as="points" />
          </mxGeometry>
        </mxCell>
        <mxCell id="wPgBuyR4cdrzYGQTB9yw-80" value="" style="endArrow=none;html=1;rounded=0;" parent="1" edge="1">
          <mxGeometry width="50" height="50" relative="1" as="geometry">
            <mxPoint x="1020" y="660" as="sourcePoint" />
            <mxPoint x="530" y="660" as="targetPoint" />
          </mxGeometry>
        </mxCell>
        <mxCell id="wPgBuyR4cdrzYGQTB9yw-81" value="" style="endArrow=none;html=1;rounded=0;" parent="1" edge="1">
          <mxGeometry width="50" height="50" relative="1" as="geometry">
            <mxPoint x="530" y="279.5" as="sourcePoint" />
            <mxPoint x="530" y="660.5" as="targetPoint" />
          </mxGeometry>
        </mxCell>
        <mxCell id="wPgBuyR4cdrzYGQTB9yw-82" value="" style="endArrow=classic;html=1;rounded=0;" parent="1" edge="1">
          <mxGeometry width="50" height="50" relative="1" as="geometry">
            <mxPoint x="530" y="280" as="sourcePoint" />
            <mxPoint x="960" y="280" as="targetPoint" />
          </mxGeometry>
        </mxCell>
        <mxCell id="wPgBuyR4cdrzYGQTB9yw-83" value="" style="endArrow=none;html=1;rounded=0;exitX=1;exitY=0.5;exitDx=0;exitDy=0;" parent="1" source="wPgBuyR4cdrzYGQTB9yw-42" edge="1">
          <mxGeometry width="50" height="50" relative="1" as="geometry">
            <mxPoint x="1330" y="290" as="sourcePoint" />
            <mxPoint x="1481.777615017361" y="280" as="targetPoint" />
          </mxGeometry>
        </mxCell>
        <mxCell id="wPgBuyR4cdrzYGQTB9yw-84" value="" style="endArrow=none;html=1;rounded=0;" parent="1" edge="1">
          <mxGeometry width="50" height="50" relative="1" as="geometry">
            <mxPoint x="1480" y="279.5" as="sourcePoint" />
            <mxPoint x="1480" y="680" as="targetPoint" />
          </mxGeometry>
        </mxCell>
        <mxCell id="wPgBuyR4cdrzYGQTB9yw-85" value="" style="endArrow=none;html=1;rounded=0;" parent="1" edge="1">
          <mxGeometry width="50" height="50" relative="1" as="geometry">
            <mxPoint x="1020" y="680" as="sourcePoint" />
            <mxPoint x="1480" y="680" as="targetPoint" />
          </mxGeometry>
        </mxCell>
        <mxCell id="wPgBuyR4cdrzYGQTB9yw-86" value="" style="endArrow=none;html=1;rounded=0;" parent="1" edge="1">
          <mxGeometry width="50" height="50" relative="1" as="geometry">
            <mxPoint x="1020" y="700" as="sourcePoint" />
            <mxPoint x="1020" y="680" as="targetPoint" />
            <Array as="points" />
          </mxGeometry>
        </mxCell>
        <mxCell id="wPgBuyR4cdrzYGQTB9yw-87" value="Вывод обратного порядка слов" style="shape=parallelogram;perimeter=parallelogramPerimeter;whiteSpace=wrap;html=1;fixedSize=1;" parent="1" vertex="1">
          <mxGeometry x="960" y="700" width="120" height="80" as="geometry" />
        </mxCell>
        <mxCell id="wPgBuyR4cdrzYGQTB9yw-88" value="" style="endArrow=none;html=1;rounded=0;exitX=0.5;exitY=1;exitDx=0;exitDy=0;" parent="1" source="wPgBuyR4cdrzYGQTB9yw-41" edge="1">
          <mxGeometry width="50" height="50" relative="1" as="geometry">
            <mxPoint x="90" y="1080" as="sourcePoint" />
            <mxPoint x="110" y="1100" as="targetPoint" />
          </mxGeometry>
        </mxCell>
        <mxCell id="wPgBuyR4cdrzYGQTB9yw-89" value="А" style="ellipse;whiteSpace=wrap;html=1;aspect=fixed;" parent="1" vertex="1">
          <mxGeometry x="90" y="1100" width="40" height="40" as="geometry" />
        </mxCell>
        <mxCell id="wPgBuyR4cdrzYGQTB9yw-90" value="А" style="ellipse;whiteSpace=wrap;html=1;aspect=fixed;" parent="1" vertex="1">
          <mxGeometry x="1000" y="180" width="40" height="40" as="geometry" />
        </mxCell>
        <mxCell id="wPgBuyR4cdrzYGQTB9yw-91" value="" style="endArrow=none;html=1;rounded=0;entryX=0.5;entryY=1;entryDx=0;entryDy=0;" parent="1" edge="1">
          <mxGeometry width="50" height="50" relative="1" as="geometry">
            <mxPoint x="1020" y="240" as="sourcePoint" />
            <mxPoint x="1020" y="220" as="targetPoint" />
          </mxGeometry>
        </mxCell>
        <mxCell id="wPgBuyR4cdrzYGQTB9yw-92" value="YES" style="text;html=1;align=center;verticalAlign=middle;resizable=0;points=[];autosize=1;strokeColor=none;fillColor=none;" parent="1" vertex="1">
          <mxGeometry x="-35" y="518" width="50" height="30" as="geometry" />
        </mxCell>
        <mxCell id="wPgBuyR4cdrzYGQTB9yw-94" value="YES" style="text;html=1;align=center;verticalAlign=middle;resizable=0;points=[];autosize=1;strokeColor=none;fillColor=none;" parent="1" vertex="1">
          <mxGeometry x="150" y="610" width="50" height="30" as="geometry" />
        </mxCell>
        <mxCell id="wPgBuyR4cdrzYGQTB9yw-95" value="YES" style="text;html=1;align=center;verticalAlign=middle;resizable=0;points=[];autosize=1;strokeColor=none;fillColor=none;" parent="1" vertex="1">
          <mxGeometry x="40" y="700" width="50" height="30" as="geometry" />
        </mxCell>
        <mxCell id="wPgBuyR4cdrzYGQTB9yw-96" value="YES" style="text;html=1;align=center;verticalAlign=middle;resizable=0;points=[];autosize=1;strokeColor=none;fillColor=none;" parent="1" vertex="1">
          <mxGeometry x="630" y="440" width="50" height="30" as="geometry" />
        </mxCell>
        <mxCell id="wPgBuyR4cdrzYGQTB9yw-97" value="YES" style="text;html=1;align=center;verticalAlign=middle;resizable=0;points=[];autosize=1;strokeColor=none;fillColor=none;" parent="1" vertex="1">
          <mxGeometry x="1160" y="440" width="50" height="30" as="geometry" />
        </mxCell>
        <mxCell id="wPgBuyR4cdrzYGQTB9yw-98" value="NO" style="text;html=1;align=center;verticalAlign=middle;resizable=0;points=[];autosize=1;strokeColor=none;fillColor=none;" parent="1" vertex="1">
          <mxGeometry x="170" y="528" width="40" height="30" as="geometry" />
        </mxCell>
        <mxCell id="wPgBuyR4cdrzYGQTB9yw-100" value="NO" style="text;html=1;align=center;verticalAlign=middle;resizable=0;points=[];autosize=1;strokeColor=none;fillColor=none;" parent="1" vertex="1">
          <mxGeometry x="330" y="610" width="40" height="30" as="geometry" />
        </mxCell>
        <mxCell id="wPgBuyR4cdrzYGQTB9yw-101" value="NO" style="text;html=1;align=center;verticalAlign=middle;resizable=0;points=[];autosize=1;strokeColor=none;fillColor=none;" parent="1" vertex="1">
          <mxGeometry x="200" y="700" width="40" height="30" as="geometry" />
        </mxCell>
        <mxCell id="wPgBuyR4cdrzYGQTB9yw-102" value="NO" style="text;html=1;align=center;verticalAlign=middle;resizable=0;points=[];autosize=1;strokeColor=none;fillColor=none;" parent="1" vertex="1">
          <mxGeometry x="820" y="445" width="40" height="30" as="geometry" />
        </mxCell>
        <mxCell id="wPgBuyR4cdrzYGQTB9yw-103" value="NO" style="text;html=1;align=center;verticalAlign=middle;resizable=0;points=[];autosize=1;strokeColor=none;fillColor=none;" parent="1" vertex="1">
          <mxGeometry x="1340" y="440" width="40" height="30" as="geometry" />
        </mxCell>
        <mxCell id="xkIm4aKQH2jARWYYDN9G-1" value="Конец" style="rounded=1;whiteSpace=wrap;html=1;" vertex="1" parent="1">
          <mxGeometry x="960" y="800" width="120" height="40" as="geometry" />
        </mxCell>
        <mxCell id="xkIm4aKQH2jARWYYDN9G-2" value="" style="endArrow=none;html=1;rounded=0;" edge="1" parent="1">
          <mxGeometry width="50" height="50" relative="1" as="geometry">
            <mxPoint x="1020" y="800" as="sourcePoint" />
            <mxPoint x="1020" y="780" as="targetPoint" />
            <Array as="points" />
          </mxGeometry>
        </mxCell>
      </root>
    </mxGraphModel>
  </diagram>
</mxfile>
